<mxfile host="app.diagrams.net" modified="2022-03-01T04:11:34.970Z" agent="5.0 (Macintosh; Intel Mac OS X 10_15_7) AppleWebKit/537.36 (KHTML, like Gecko) Chrome/98.0.4758.109 Safari/537.36" etag="uetOKNHzyRLl-KrukVjR" version="16.6.2" type="github">
  <diagram id="zrVmGgvz86s285oYRR-s" name="Page-1">
    <mxGraphModel dx="2013" dy="1790" grid="1" gridSize="10" guides="1" tooltips="1" connect="1" arrows="1" fold="1" page="1" pageScale="1" pageWidth="827" pageHeight="1169" math="0" shadow="0">
      <root>
        <mxCell id="0" />
        <mxCell id="1" parent="0" />
        <mxCell id="Rq448YzsMf7xzy8Vdv3U-54" value="" style="rounded=0;whiteSpace=wrap;html=1;" parent="1" vertex="1">
          <mxGeometry x="-550" y="770" width="850" height="450" as="geometry" />
        </mxCell>
        <mxCell id="Rq448YzsMf7xzy8Vdv3U-1" value="Mybatis配置文件" style="rounded=1;whiteSpace=wrap;html=1;verticalAlign=top;" parent="1" vertex="1">
          <mxGeometry x="-305" y="-30" width="360" height="150" as="geometry" />
        </mxCell>
        <mxCell id="Rq448YzsMf7xzy8Vdv3U-4" value="" style="edgeStyle=orthogonalEdgeStyle;rounded=0;orthogonalLoop=1;jettySize=auto;html=1;" parent="1" source="Rq448YzsMf7xzy8Vdv3U-2" target="Rq448YzsMf7xzy8Vdv3U-3" edge="1">
          <mxGeometry relative="1" as="geometry" />
        </mxCell>
        <mxCell id="Rq448YzsMf7xzy8Vdv3U-6" style="edgeStyle=orthogonalEdgeStyle;rounded=0;orthogonalLoop=1;jettySize=auto;html=1;exitX=0.5;exitY=1;exitDx=0;exitDy=0;entryX=0.5;entryY=0;entryDx=0;entryDy=0;" parent="1" source="Rq448YzsMf7xzy8Vdv3U-2" target="Rq448YzsMf7xzy8Vdv3U-5" edge="1">
          <mxGeometry relative="1" as="geometry" />
        </mxCell>
        <mxCell id="Rq448YzsMf7xzy8Vdv3U-2" value="mybatis-config.xml" style="rounded=0;whiteSpace=wrap;html=1;" parent="1" vertex="1">
          <mxGeometry x="-185" width="120" height="30" as="geometry" />
        </mxCell>
        <mxCell id="Rq448YzsMf7xzy8Vdv3U-3" value="Mapper1.xml" style="whiteSpace=wrap;html=1;rounded=0;" parent="1" vertex="1">
          <mxGeometry x="-265" y="60" width="120" height="30" as="geometry" />
        </mxCell>
        <mxCell id="Rq448YzsMf7xzy8Vdv3U-5" value="Mapper2.xml" style="whiteSpace=wrap;html=1;rounded=0;" parent="1" vertex="1">
          <mxGeometry x="-105" y="60" width="120" height="30" as="geometry" />
        </mxCell>
        <mxCell id="Rq448YzsMf7xzy8Vdv3U-7" value="SqlSessionFactory" style="whiteSpace=wrap;html=1;verticalAlign=middle;rounded=1;" parent="1" vertex="1">
          <mxGeometry x="-305" y="260" width="360" height="40" as="geometry" />
        </mxCell>
        <mxCell id="Rq448YzsMf7xzy8Vdv3U-9" value="" style="shape=flexArrow;endArrow=classic;html=1;rounded=0;" parent="1" edge="1">
          <mxGeometry width="50" height="50" relative="1" as="geometry">
            <mxPoint x="-125" y="210" as="sourcePoint" />
            <mxPoint x="-125" y="260" as="targetPoint" />
          </mxGeometry>
        </mxCell>
        <mxCell id="Rq448YzsMf7xzy8Vdv3U-10" value="SqlSession" style="whiteSpace=wrap;html=1;verticalAlign=middle;rounded=1;" parent="1" vertex="1">
          <mxGeometry x="-305" y="350" width="360" height="40" as="geometry" />
        </mxCell>
        <mxCell id="Rq448YzsMf7xzy8Vdv3U-11" value="" style="shape=flexArrow;endArrow=classic;html=1;rounded=0;" parent="1" edge="1">
          <mxGeometry width="50" height="50" relative="1" as="geometry">
            <mxPoint x="-125" y="300" as="sourcePoint" />
            <mxPoint x="-125" y="350" as="targetPoint" />
          </mxGeometry>
        </mxCell>
        <mxCell id="Rq448YzsMf7xzy8Vdv3U-13" value="Executor" style="whiteSpace=wrap;html=1;verticalAlign=middle;rounded=1;fillColor=#dae8fc;strokeColor=#6c8ebf;" parent="1" vertex="1">
          <mxGeometry x="-305" y="440" width="360" height="40" as="geometry" />
        </mxCell>
        <mxCell id="Rq448YzsMf7xzy8Vdv3U-14" value="" style="shape=flexArrow;endArrow=classic;html=1;rounded=0;" parent="1" edge="1">
          <mxGeometry width="50" height="50" relative="1" as="geometry">
            <mxPoint x="-125" y="390" as="sourcePoint" />
            <mxPoint x="-125" y="440" as="targetPoint" />
          </mxGeometry>
        </mxCell>
        <mxCell id="Rq448YzsMf7xzy8Vdv3U-15" value="MappedStatement" style="whiteSpace=wrap;html=1;verticalAlign=middle;rounded=1;" parent="1" vertex="1">
          <mxGeometry x="-305" y="530" width="360" height="40" as="geometry" />
        </mxCell>
        <mxCell id="Rq448YzsMf7xzy8Vdv3U-16" value="" style="shape=flexArrow;endArrow=classic;html=1;rounded=0;" parent="1" edge="1">
          <mxGeometry width="50" height="50" relative="1" as="geometry">
            <mxPoint x="-125" y="480" as="sourcePoint" />
            <mxPoint x="-125" y="530" as="targetPoint" />
          </mxGeometry>
        </mxCell>
        <mxCell id="Rq448YzsMf7xzy8Vdv3U-18" value="数据库" style="shape=cylinder3;whiteSpace=wrap;html=1;boundedLbl=1;backgroundOutline=1;size=15;" parent="1" vertex="1">
          <mxGeometry x="-190" y="620" width="130" height="80" as="geometry" />
        </mxCell>
        <mxCell id="Rq448YzsMf7xzy8Vdv3U-19" value="" style="shape=flexArrow;endArrow=classic;html=1;rounded=0;" parent="1" edge="1">
          <mxGeometry width="50" height="50" relative="1" as="geometry">
            <mxPoint x="-125.5" y="570" as="sourcePoint" />
            <mxPoint x="-125.5" y="620" as="targetPoint" />
          </mxGeometry>
        </mxCell>
        <mxCell id="Rq448YzsMf7xzy8Vdv3U-20" value="输入映射" style="rounded=0;whiteSpace=wrap;html=1;verticalAlign=top;" parent="1" vertex="1">
          <mxGeometry x="-465" y="482" width="120" height="130" as="geometry" />
        </mxCell>
        <mxCell id="Rq448YzsMf7xzy8Vdv3U-21" value="Map" style="rounded=0;whiteSpace=wrap;html=1;" parent="1" vertex="1">
          <mxGeometry x="-455" y="507" width="100" height="25" as="geometry" />
        </mxCell>
        <mxCell id="Rq448YzsMf7xzy8Vdv3U-22" value="String、Integer等基础数据类型" style="rounded=0;whiteSpace=wrap;html=1;" parent="1" vertex="1">
          <mxGeometry x="-455" y="542" width="100" height="30" as="geometry" />
        </mxCell>
        <mxCell id="Rq448YzsMf7xzy8Vdv3U-23" value="POJO" style="rounded=0;whiteSpace=wrap;html=1;" parent="1" vertex="1">
          <mxGeometry x="-455" y="577" width="100" height="25" as="geometry" />
        </mxCell>
        <mxCell id="Rq448YzsMf7xzy8Vdv3U-24" value="输出映射" style="rounded=0;whiteSpace=wrap;html=1;verticalAlign=top;" parent="1" vertex="1">
          <mxGeometry x="95" y="474" width="120" height="130" as="geometry" />
        </mxCell>
        <mxCell id="Rq448YzsMf7xzy8Vdv3U-25" value="Map、List" style="rounded=0;whiteSpace=wrap;html=1;" parent="1" vertex="1">
          <mxGeometry x="105" y="499" width="100" height="25" as="geometry" />
        </mxCell>
        <mxCell id="Rq448YzsMf7xzy8Vdv3U-26" value="String、Integer等基础数据类型" style="rounded=0;whiteSpace=wrap;html=1;" parent="1" vertex="1">
          <mxGeometry x="105" y="534" width="100" height="30" as="geometry" />
        </mxCell>
        <mxCell id="Rq448YzsMf7xzy8Vdv3U-27" value="POJO" style="rounded=0;whiteSpace=wrap;html=1;" parent="1" vertex="1">
          <mxGeometry x="105" y="569" width="100" height="25" as="geometry" />
        </mxCell>
        <mxCell id="Rq448YzsMf7xzy8Vdv3U-29" value="" style="shape=flexArrow;endArrow=classic;html=1;rounded=0;" parent="1" edge="1">
          <mxGeometry width="50" height="50" relative="1" as="geometry">
            <mxPoint x="-345" y="549.5" as="sourcePoint" />
            <mxPoint x="-305" y="549.5" as="targetPoint" />
          </mxGeometry>
        </mxCell>
        <mxCell id="Rq448YzsMf7xzy8Vdv3U-30" value="" style="shape=flexArrow;endArrow=classic;html=1;rounded=0;" parent="1" edge="1">
          <mxGeometry width="50" height="50" relative="1" as="geometry">
            <mxPoint x="55" y="549.5" as="sourcePoint" />
            <mxPoint x="95" y="549.5" as="targetPoint" />
          </mxGeometry>
        </mxCell>
        <mxCell id="Rq448YzsMf7xzy8Vdv3U-33" style="edgeStyle=orthogonalEdgeStyle;rounded=0;orthogonalLoop=1;jettySize=auto;html=1;exitX=0.25;exitY=1;exitDx=0;exitDy=0;entryX=0.25;entryY=0;entryDx=0;entryDy=0;" parent="1" source="Rq448YzsMf7xzy8Vdv3U-31" target="Rq448YzsMf7xzy8Vdv3U-32" edge="1">
          <mxGeometry relative="1" as="geometry" />
        </mxCell>
        <mxCell id="Rq448YzsMf7xzy8Vdv3U-31" value="SqlSession" style="rounded=0;whiteSpace=wrap;html=1;" parent="1" vertex="1">
          <mxGeometry x="-440" y="785" width="220" height="40" as="geometry" />
        </mxCell>
        <mxCell id="Rq448YzsMf7xzy8Vdv3U-34" style="edgeStyle=orthogonalEdgeStyle;rounded=0;orthogonalLoop=1;jettySize=auto;html=1;exitX=0.75;exitY=0;exitDx=0;exitDy=0;entryX=0.75;entryY=1;entryDx=0;entryDy=0;fillColor=#d80073;strokeColor=#A50040;" parent="1" source="Rq448YzsMf7xzy8Vdv3U-32" target="Rq448YzsMf7xzy8Vdv3U-31" edge="1">
          <mxGeometry relative="1" as="geometry" />
        </mxCell>
        <mxCell id="Rq448YzsMf7xzy8Vdv3U-36" style="edgeStyle=orthogonalEdgeStyle;rounded=0;orthogonalLoop=1;jettySize=auto;html=1;exitX=0.25;exitY=1;exitDx=0;exitDy=0;entryX=0.25;entryY=0;entryDx=0;entryDy=0;" parent="1" source="Rq448YzsMf7xzy8Vdv3U-32" target="Rq448YzsMf7xzy8Vdv3U-35" edge="1">
          <mxGeometry relative="1" as="geometry" />
        </mxCell>
        <mxCell id="Rq448YzsMf7xzy8Vdv3U-32" value="Executor" style="rounded=0;whiteSpace=wrap;html=1;" parent="1" vertex="1">
          <mxGeometry x="-440" y="885" width="220" height="40" as="geometry" />
        </mxCell>
        <mxCell id="Rq448YzsMf7xzy8Vdv3U-37" style="edgeStyle=orthogonalEdgeStyle;rounded=0;orthogonalLoop=1;jettySize=auto;html=1;exitX=0.75;exitY=0;exitDx=0;exitDy=0;entryX=0.75;entryY=1;entryDx=0;entryDy=0;fillColor=#d80073;strokeColor=#A50040;" parent="1" source="Rq448YzsMf7xzy8Vdv3U-35" target="Rq448YzsMf7xzy8Vdv3U-32" edge="1">
          <mxGeometry relative="1" as="geometry" />
        </mxCell>
        <mxCell id="Rq448YzsMf7xzy8Vdv3U-41" style="edgeStyle=orthogonalEdgeStyle;rounded=0;orthogonalLoop=1;jettySize=auto;html=1;exitX=0.25;exitY=1;exitDx=0;exitDy=0;entryX=0.694;entryY=0.025;entryDx=0;entryDy=0;entryPerimeter=0;dashed=1;" parent="1" source="Rq448YzsMf7xzy8Vdv3U-35" target="Rq448YzsMf7xzy8Vdv3U-38" edge="1">
          <mxGeometry relative="1" as="geometry" />
        </mxCell>
        <mxCell id="Rq448YzsMf7xzy8Vdv3U-35" value="StatementHandler" style="rounded=0;whiteSpace=wrap;html=1;" parent="1" vertex="1">
          <mxGeometry x="-440" y="975" width="220" height="40" as="geometry" />
        </mxCell>
        <mxCell id="Rq448YzsMf7xzy8Vdv3U-51" style="edgeStyle=orthogonalEdgeStyle;rounded=0;orthogonalLoop=1;jettySize=auto;html=1;exitX=0.75;exitY=1;exitDx=0;exitDy=0;entryX=0.25;entryY=0;entryDx=0;entryDy=0;dashed=1;" parent="1" source="Rq448YzsMf7xzy8Vdv3U-38" target="Rq448YzsMf7xzy8Vdv3U-50" edge="1">
          <mxGeometry relative="1" as="geometry" />
        </mxCell>
        <mxCell id="Rq448YzsMf7xzy8Vdv3U-38" value="ParameterHandler" style="rounded=0;whiteSpace=wrap;html=1;" parent="1" vertex="1">
          <mxGeometry x="-510" y="1075" width="180" height="40" as="geometry" />
        </mxCell>
        <mxCell id="Rq448YzsMf7xzy8Vdv3U-49" style="edgeStyle=orthogonalEdgeStyle;rounded=0;orthogonalLoop=1;jettySize=auto;html=1;exitX=0.25;exitY=0;exitDx=0;exitDy=0;entryX=0.75;entryY=1;entryDx=0;entryDy=0;dashed=1;fillColor=#d80073;strokeColor=#A50040;" parent="1" source="Rq448YzsMf7xzy8Vdv3U-39" target="Rq448YzsMf7xzy8Vdv3U-35" edge="1">
          <mxGeometry relative="1" as="geometry" />
        </mxCell>
        <mxCell id="Rq448YzsMf7xzy8Vdv3U-39" value="ResultHandler" style="rounded=0;whiteSpace=wrap;html=1;" parent="1" vertex="1">
          <mxGeometry x="-320" y="1075" width="180" height="40" as="geometry" />
        </mxCell>
        <mxCell id="Rq448YzsMf7xzy8Vdv3U-52" style="edgeStyle=orthogonalEdgeStyle;rounded=0;orthogonalLoop=1;jettySize=auto;html=1;exitX=0.75;exitY=0;exitDx=0;exitDy=0;entryX=0.25;entryY=1;entryDx=0;entryDy=0;dashed=1;fillColor=#d80073;strokeColor=#A50040;" parent="1" source="Rq448YzsMf7xzy8Vdv3U-50" target="Rq448YzsMf7xzy8Vdv3U-39" edge="1">
          <mxGeometry relative="1" as="geometry" />
        </mxCell>
        <mxCell id="Rq448YzsMf7xzy8Vdv3U-50" value="TypeHandler&amp;lt;T&amp;gt;" style="rounded=0;whiteSpace=wrap;html=1;" parent="1" vertex="1">
          <mxGeometry x="-410" y="1145" width="180" height="40" as="geometry" />
        </mxCell>
        <mxCell id="Rq448YzsMf7xzy8Vdv3U-55" value="BoundSql" style="rounded=1;whiteSpace=wrap;html=1;fillColor=#ffe6cc;strokeColor=#d79b00;" parent="1" vertex="1">
          <mxGeometry x="-130" y="925" width="100" height="40" as="geometry" />
        </mxCell>
        <mxCell id="Rq448YzsMf7xzy8Vdv3U-56" value="MappedStatement" style="rounded=1;whiteSpace=wrap;html=1;fillColor=#ffe6cc;strokeColor=#d79b00;verticalAlign=top;" parent="1" vertex="1">
          <mxGeometry x="-3" y="865" width="140" height="160" as="geometry" />
        </mxCell>
        <mxCell id="Rq448YzsMf7xzy8Vdv3U-57" value="SqlSource" style="rounded=0;whiteSpace=wrap;html=1;" parent="1" vertex="1">
          <mxGeometry x="22" y="915" width="90" height="30" as="geometry" />
        </mxCell>
        <mxCell id="Rq448YzsMf7xzy8Vdv3U-58" value="ResultMap" style="rounded=0;whiteSpace=wrap;html=1;" parent="1" vertex="1">
          <mxGeometry x="22" y="965" width="90" height="30" as="geometry" />
        </mxCell>
        <mxCell id="Rq448YzsMf7xzy8Vdv3U-61" style="edgeStyle=orthogonalEdgeStyle;rounded=0;orthogonalLoop=1;jettySize=auto;html=1;exitX=0;exitY=0.5;exitDx=0;exitDy=0;entryX=1;entryY=0.5;entryDx=0;entryDy=0;dashed=1;" parent="1" source="Rq448YzsMf7xzy8Vdv3U-60" target="Rq448YzsMf7xzy8Vdv3U-56" edge="1">
          <mxGeometry relative="1" as="geometry" />
        </mxCell>
        <mxCell id="Rq448YzsMf7xzy8Vdv3U-60" value="Configuration" style="rounded=0;whiteSpace=wrap;html=1;fillColor=#fff2cc;strokeColor=#d6b656;" parent="1" vertex="1">
          <mxGeometry x="170" y="835" width="100" height="220" as="geometry" />
        </mxCell>
        <mxCell id="Rq448YzsMf7xzy8Vdv3U-74" style="edgeStyle=orthogonalEdgeStyle;rounded=0;orthogonalLoop=1;jettySize=auto;html=1;exitX=0.5;exitY=0;exitDx=0;exitDy=0;entryX=0.75;entryY=1;entryDx=0;entryDy=0;dashed=1;fontSize=12;fillColor=#d80073;strokeColor=#A50040;" parent="1" source="Rq448YzsMf7xzy8Vdv3U-62" target="Rq448YzsMf7xzy8Vdv3U-39" edge="1">
          <mxGeometry relative="1" as="geometry" />
        </mxCell>
        <mxCell id="Rq448YzsMf7xzy8Vdv3U-62" value="&lt;b&gt;&lt;font style=&quot;font-size: 16px&quot;&gt;JDBC&lt;/font&gt;&lt;/b&gt;" style="rounded=0;whiteSpace=wrap;html=1;verticalAlign=top;align=left;" parent="1" vertex="1">
          <mxGeometry x="-550" y="1275" width="850" height="180" as="geometry" />
        </mxCell>
        <mxCell id="Rq448YzsMf7xzy8Vdv3U-72" style="edgeStyle=orthogonalEdgeStyle;rounded=0;orthogonalLoop=1;jettySize=auto;html=1;exitX=0.5;exitY=0;exitDx=0;exitDy=0;entryX=0.5;entryY=1;entryDx=0;entryDy=0;dashed=1;fontSize=12;fillColor=#d80073;strokeColor=#A50040;" parent="1" source="Rq448YzsMf7xzy8Vdv3U-63" target="Rq448YzsMf7xzy8Vdv3U-50" edge="1">
          <mxGeometry relative="1" as="geometry" />
        </mxCell>
        <mxCell id="Rq448YzsMf7xzy8Vdv3U-63" value="ResultSet" style="rounded=1;whiteSpace=wrap;html=1;fontSize=12;fontStyle=0" parent="1" vertex="1">
          <mxGeometry x="-300" y="1295" width="120" height="30" as="geometry" />
        </mxCell>
        <mxCell id="Rq448YzsMf7xzy8Vdv3U-70" style="edgeStyle=orthogonalEdgeStyle;rounded=0;orthogonalLoop=1;jettySize=auto;html=1;exitX=0.5;exitY=0;exitDx=0;exitDy=0;entryX=0.5;entryY=1;entryDx=0;entryDy=0;dashed=1;fontSize=12;fillColor=#d80073;strokeColor=#A50040;" parent="1" source="Rq448YzsMf7xzy8Vdv3U-64" target="Rq448YzsMf7xzy8Vdv3U-63" edge="1">
          <mxGeometry relative="1" as="geometry" />
        </mxCell>
        <mxCell id="Rq448YzsMf7xzy8Vdv3U-64" value="&lt;b&gt;&lt;font style=&quot;font-size: 14px&quot; color=&quot;#ff0000&quot;&gt;Statement&lt;/font&gt;&lt;/b&gt;" style="rounded=1;whiteSpace=wrap;html=1;fontSize=12;dashed=1;verticalAlign=top;align=left;" parent="1" vertex="1">
          <mxGeometry x="-485" y="1375" width="490" height="70" as="geometry" />
        </mxCell>
        <mxCell id="Rq448YzsMf7xzy8Vdv3U-66" value="PreparedStatement" style="rounded=1;whiteSpace=wrap;html=1;fontSize=12;fontStyle=0" parent="1" vertex="1">
          <mxGeometry x="-460" y="1400" width="120" height="30" as="geometry" />
        </mxCell>
        <mxCell id="Rq448YzsMf7xzy8Vdv3U-67" value="SimpleStatement" style="rounded=1;whiteSpace=wrap;html=1;fontSize=12;fontStyle=0" parent="1" vertex="1">
          <mxGeometry x="-310" y="1400" width="120" height="30" as="geometry" />
        </mxCell>
        <mxCell id="Rq448YzsMf7xzy8Vdv3U-68" value="CallableStatement" style="rounded=1;whiteSpace=wrap;html=1;fontSize=12;fontStyle=0" parent="1" vertex="1">
          <mxGeometry x="-170" y="1410" width="120" height="30" as="geometry" />
        </mxCell>
        <mxCell id="Rq448YzsMf7xzy8Vdv3U-71" value="返回结构集" style="text;html=1;strokeColor=none;fillColor=none;align=center;verticalAlign=middle;whiteSpace=wrap;rounded=0;dashed=1;fontSize=12;" parent="1" vertex="1">
          <mxGeometry x="-240" y="1335" width="70" height="30" as="geometry" />
        </mxCell>
        <mxCell id="Rq448YzsMf7xzy8Vdv3U-75" style="edgeStyle=orthogonalEdgeStyle;rounded=0;orthogonalLoop=1;jettySize=auto;html=1;exitX=0.25;exitY=1;exitDx=0;exitDy=0;entryX=0.118;entryY=0.55;entryDx=0;entryDy=0;entryPerimeter=0;dashed=1;fontSize=12;" parent="1" source="Rq448YzsMf7xzy8Vdv3U-38" target="Rq448YzsMf7xzy8Vdv3U-62" edge="1">
          <mxGeometry relative="1" as="geometry" />
        </mxCell>
        <mxCell id="Rq448YzsMf7xzy8Vdv3U-77" style="edgeStyle=orthogonalEdgeStyle;rounded=0;orthogonalLoop=1;jettySize=auto;html=1;exitX=0.25;exitY=1;exitDx=0;exitDy=0;entryX=0.25;entryY=0;entryDx=0;entryDy=0;dashed=1;fontSize=12;" parent="1" source="Rq448YzsMf7xzy8Vdv3U-50" target="Rq448YzsMf7xzy8Vdv3U-64" edge="1">
          <mxGeometry relative="1" as="geometry" />
        </mxCell>
        <mxCell id="AFXGD0vldeX-8flnhmzO-6" value="" style="edgeStyle=orthogonalEdgeStyle;rounded=0;orthogonalLoop=1;jettySize=auto;html=1;" parent="1" source="AFXGD0vldeX-8flnhmzO-1" target="AFXGD0vldeX-8flnhmzO-5" edge="1">
          <mxGeometry relative="1" as="geometry" />
        </mxCell>
        <mxCell id="AFXGD0vldeX-8flnhmzO-1" value="Configuration" style="whiteSpace=wrap;html=1;verticalAlign=middle;rounded=1;" parent="1" vertex="1">
          <mxGeometry x="-300" y="170" width="360" height="40" as="geometry" />
        </mxCell>
        <mxCell id="AFXGD0vldeX-8flnhmzO-3" value="" style="shape=flexArrow;endArrow=classic;html=1;rounded=0;exitX=0.5;exitY=1;exitDx=0;exitDy=0;" parent="1" source="Rq448YzsMf7xzy8Vdv3U-1" edge="1">
          <mxGeometry width="50" height="50" relative="1" as="geometry">
            <mxPoint x="-125" y="140" as="sourcePoint" />
            <mxPoint x="-125" y="170" as="targetPoint" />
          </mxGeometry>
        </mxCell>
        <mxCell id="AFXGD0vldeX-8flnhmzO-8" value="" style="edgeStyle=orthogonalEdgeStyle;rounded=0;orthogonalLoop=1;jettySize=auto;html=1;" parent="1" source="AFXGD0vldeX-8flnhmzO-5" target="AFXGD0vldeX-8flnhmzO-7" edge="1">
          <mxGeometry relative="1" as="geometry" />
        </mxCell>
        <mxCell id="AFXGD0vldeX-8flnhmzO-5" value="MapperRegister" style="whiteSpace=wrap;html=1;rounded=1;" parent="1" vertex="1">
          <mxGeometry x="260" y="160" width="120" height="60" as="geometry" />
        </mxCell>
        <mxCell id="AFXGD0vldeX-8flnhmzO-10" value="" style="edgeStyle=orthogonalEdgeStyle;rounded=0;orthogonalLoop=1;jettySize=auto;html=1;" parent="1" source="AFXGD0vldeX-8flnhmzO-7" target="AFXGD0vldeX-8flnhmzO-9" edge="1">
          <mxGeometry relative="1" as="geometry" />
        </mxCell>
        <mxCell id="AFXGD0vldeX-8flnhmzO-7" value="MapperProxyFactory" style="whiteSpace=wrap;html=1;rounded=1;" parent="1" vertex="1">
          <mxGeometry x="260" y="260" width="120" height="60" as="geometry" />
        </mxCell>
        <mxCell id="AFXGD0vldeX-8flnhmzO-12" value="" style="edgeStyle=orthogonalEdgeStyle;rounded=0;orthogonalLoop=1;jettySize=auto;html=1;" parent="1" source="AFXGD0vldeX-8flnhmzO-9" target="AFXGD0vldeX-8flnhmzO-11" edge="1">
          <mxGeometry relative="1" as="geometry" />
        </mxCell>
        <mxCell id="AFXGD0vldeX-8flnhmzO-9" value="MapperProxy" style="whiteSpace=wrap;html=1;rounded=1;fillColor=#f8cecc;strokeColor=#b85450;" parent="1" vertex="1">
          <mxGeometry x="260" y="360" width="120" height="60" as="geometry" />
        </mxCell>
        <mxCell id="AFXGD0vldeX-8flnhmzO-11" value="XxOoMapper" style="whiteSpace=wrap;html=1;rounded=1;" parent="1" vertex="1">
          <mxGeometry x="260" y="534" width="120" height="60" as="geometry" />
        </mxCell>
        <mxCell id="AFXGD0vldeX-8flnhmzO-14" value="动态代理获取Mapper接口" style="text;html=1;strokeColor=none;fillColor=none;align=center;verticalAlign=middle;whiteSpace=wrap;rounded=0;fontColor=#CC0000;" parent="1" vertex="1">
          <mxGeometry x="40" y="360" width="175" height="30" as="geometry" />
        </mxCell>
        <mxCell id="Y9dcvcBHEjXSq1MkC8Hs-1" value="SqlSession" style="rounded=0;whiteSpace=wrap;html=1;verticalAlign=top;fontSize=17;" parent="1" vertex="1">
          <mxGeometry x="-545" y="1570" width="545" height="350" as="geometry" />
        </mxCell>
        <mxCell id="Y9dcvcBHEjXSq1MkC8Hs-4" style="edgeStyle=orthogonalEdgeStyle;rounded=0;orthogonalLoop=1;jettySize=auto;html=1;exitX=1;exitY=0.5;exitDx=0;exitDy=0;entryX=0;entryY=0.25;entryDx=0;entryDy=0;fontSize=14;" parent="1" source="Y9dcvcBHEjXSq1MkC8Hs-2" edge="1">
          <mxGeometry relative="1" as="geometry">
            <mxPoint x="-170" y="1673" as="targetPoint" />
          </mxGeometry>
        </mxCell>
        <mxCell id="Y9dcvcBHEjXSq1MkC8Hs-6" value="写入" style="edgeLabel;html=1;align=center;verticalAlign=middle;resizable=0;points=[];fontSize=14;fontColor=#000000;" parent="Y9dcvcBHEjXSq1MkC8Hs-4" vertex="1" connectable="0">
          <mxGeometry x="-0.1059" y="1" relative="1" as="geometry">
            <mxPoint y="1" as="offset" />
          </mxGeometry>
        </mxCell>
        <mxCell id="Y9dcvcBHEjXSq1MkC8Hs-2" value="第一次查询ID=1的用户" style="rounded=1;whiteSpace=wrap;html=1;fontSize=14;align=center;" parent="1" vertex="1">
          <mxGeometry x="-490" y="1653" width="145" height="40" as="geometry" />
        </mxCell>
        <mxCell id="Y9dcvcBHEjXSq1MkC8Hs-3" value="SqlSession一级缓存区域(Map)" style="rounded=1;whiteSpace=wrap;html=1;fontSize=14;strokeColor=#314354;fillColor=#647687;fontColor=#ffffff;" parent="1" vertex="1">
          <mxGeometry x="-170" y="1635" width="120" height="220" as="geometry" />
        </mxCell>
        <mxCell id="Y9dcvcBHEjXSq1MkC8Hs-7" style="edgeStyle=orthogonalEdgeStyle;rounded=0;orthogonalLoop=1;jettySize=auto;html=1;exitX=1;exitY=0.5;exitDx=0;exitDy=0;entryX=0;entryY=0.5;entryDx=0;entryDy=0;fontSize=14;fontColor=#000000;" parent="1" source="Y9dcvcBHEjXSq1MkC8Hs-5" target="Y9dcvcBHEjXSq1MkC8Hs-3" edge="1">
          <mxGeometry relative="1" as="geometry" />
        </mxCell>
        <mxCell id="Y9dcvcBHEjXSq1MkC8Hs-8" value="清空" style="edgeLabel;html=1;align=center;verticalAlign=middle;resizable=0;points=[];fontSize=14;fontColor=#000000;" parent="Y9dcvcBHEjXSq1MkC8Hs-7" vertex="1" connectable="0">
          <mxGeometry x="0.1412" y="3" relative="1" as="geometry">
            <mxPoint y="1" as="offset" />
          </mxGeometry>
        </mxCell>
        <mxCell id="Y9dcvcBHEjXSq1MkC8Hs-5" value="增删改等操作commit" style="rounded=1;whiteSpace=wrap;html=1;fontSize=14;align=center;" parent="1" vertex="1">
          <mxGeometry x="-490" y="1725" width="145" height="40" as="geometry" />
        </mxCell>
        <mxCell id="Y9dcvcBHEjXSq1MkC8Hs-10" style="edgeStyle=orthogonalEdgeStyle;rounded=0;orthogonalLoop=1;jettySize=auto;html=1;exitX=1;exitY=0.5;exitDx=0;exitDy=0;entryX=0;entryY=0.861;entryDx=0;entryDy=0;entryPerimeter=0;fontSize=14;fontColor=#000000;" parent="1" source="Y9dcvcBHEjXSq1MkC8Hs-9" target="Y9dcvcBHEjXSq1MkC8Hs-3" edge="1">
          <mxGeometry relative="1" as="geometry" />
        </mxCell>
        <mxCell id="Y9dcvcBHEjXSq1MkC8Hs-11" value="读取" style="edgeLabel;html=1;align=center;verticalAlign=middle;resizable=0;points=[];fontSize=14;fontColor=#000000;" parent="Y9dcvcBHEjXSq1MkC8Hs-10" vertex="1" connectable="0">
          <mxGeometry x="-0.0205" y="1" relative="1" as="geometry">
            <mxPoint y="1" as="offset" />
          </mxGeometry>
        </mxCell>
        <mxCell id="Y9dcvcBHEjXSq1MkC8Hs-9" value="第二次查询ID=1的用户" style="rounded=1;whiteSpace=wrap;html=1;fontSize=14;align=center;" parent="1" vertex="1">
          <mxGeometry x="-490" y="1805" width="145" height="40" as="geometry" />
        </mxCell>
        <mxCell id="Y9dcvcBHEjXSq1MkC8Hs-12" value="UserMapper" style="rounded=0;whiteSpace=wrap;html=1;verticalAlign=top;fontSize=17;" parent="1" vertex="1">
          <mxGeometry x="47.5" y="1570" width="642.5" height="350" as="geometry" />
        </mxCell>
        <mxCell id="Y9dcvcBHEjXSq1MkC8Hs-17" style="edgeStyle=orthogonalEdgeStyle;rounded=0;orthogonalLoop=1;jettySize=auto;html=1;exitX=0.5;exitY=1;exitDx=0;exitDy=0;fontSize=14;fontColor=#000000;" parent="1" source="Y9dcvcBHEjXSq1MkC8Hs-13" target="Y9dcvcBHEjXSq1MkC8Hs-16" edge="1">
          <mxGeometry relative="1" as="geometry">
            <Array as="points">
              <mxPoint x="168" y="1770" />
              <mxPoint x="168" y="1770" />
            </Array>
          </mxGeometry>
        </mxCell>
        <mxCell id="Y9dcvcBHEjXSq1MkC8Hs-18" value="写入" style="edgeLabel;html=1;align=center;verticalAlign=middle;resizable=0;points=[];fontSize=14;fontColor=#000000;" parent="Y9dcvcBHEjXSq1MkC8Hs-17" vertex="1" connectable="0">
          <mxGeometry x="-0.1282" y="1" relative="1" as="geometry">
            <mxPoint as="offset" />
          </mxGeometry>
        </mxCell>
        <mxCell id="Y9dcvcBHEjXSq1MkC8Hs-13" value="sqlSession1&lt;br&gt;执行UserMapper查询" style="rounded=1;whiteSpace=wrap;html=1;fontSize=14;align=center;" parent="1" vertex="1">
          <mxGeometry x="95" y="1653" width="145" height="57" as="geometry" />
        </mxCell>
        <mxCell id="Y9dcvcBHEjXSq1MkC8Hs-14" value="sqlSession2&lt;br&gt;执行UserMapper查询" style="rounded=1;whiteSpace=wrap;html=1;fontSize=14;align=center;" parent="1" vertex="1">
          <mxGeometry x="295.25" y="1653" width="145" height="57" as="geometry" />
        </mxCell>
        <mxCell id="Y9dcvcBHEjXSq1MkC8Hs-20" style="edgeStyle=orthogonalEdgeStyle;rounded=0;orthogonalLoop=1;jettySize=auto;html=1;exitX=0.5;exitY=1;exitDx=0;exitDy=0;entryX=0.868;entryY=0.035;entryDx=0;entryDy=0;entryPerimeter=0;fontSize=14;fontColor=#000000;" parent="1" source="Y9dcvcBHEjXSq1MkC8Hs-15" target="Y9dcvcBHEjXSq1MkC8Hs-16" edge="1">
          <mxGeometry relative="1" as="geometry" />
        </mxCell>
        <mxCell id="Y9dcvcBHEjXSq1MkC8Hs-22" value="清空" style="edgeLabel;html=1;align=center;verticalAlign=middle;resizable=0;points=[];fontSize=14;fontColor=#000000;" parent="Y9dcvcBHEjXSq1MkC8Hs-20" vertex="1" connectable="0">
          <mxGeometry x="-0.1687" y="4" relative="1" as="geometry">
            <mxPoint y="1" as="offset" />
          </mxGeometry>
        </mxCell>
        <mxCell id="Y9dcvcBHEjXSq1MkC8Hs-15" value="sqlSession3&lt;br&gt;执行UserMapper提交（增删该）" style="rounded=1;whiteSpace=wrap;html=1;fontSize=14;align=center;" parent="1" vertex="1">
          <mxGeometry x="495" y="1653" width="145" height="57" as="geometry" />
        </mxCell>
        <mxCell id="Y9dcvcBHEjXSq1MkC8Hs-19" style="edgeStyle=orthogonalEdgeStyle;rounded=0;orthogonalLoop=1;jettySize=auto;html=1;exitX=0.5;exitY=0;exitDx=0;exitDy=0;entryX=0.5;entryY=1;entryDx=0;entryDy=0;fontSize=14;fontColor=#000000;" parent="1" source="Y9dcvcBHEjXSq1MkC8Hs-16" target="Y9dcvcBHEjXSq1MkC8Hs-14" edge="1">
          <mxGeometry relative="1" as="geometry" />
        </mxCell>
        <mxCell id="Y9dcvcBHEjXSq1MkC8Hs-21" value="读取" style="edgeLabel;html=1;align=center;verticalAlign=middle;resizable=0;points=[];fontSize=14;fontColor=#000000;" parent="Y9dcvcBHEjXSq1MkC8Hs-19" vertex="1" connectable="0">
          <mxGeometry x="-0.1188" y="4" relative="1" as="geometry">
            <mxPoint x="1" as="offset" />
          </mxGeometry>
        </mxCell>
        <mxCell id="Y9dcvcBHEjXSq1MkC8Hs-16" value="UserMapper的二级缓存区域" style="rounded=1;whiteSpace=wrap;html=1;fontSize=14;align=center;fillColor=#647687;fontColor=#ffffff;strokeColor=#314354;" parent="1" vertex="1">
          <mxGeometry x="95" y="1788" width="545" height="57" as="geometry" />
        </mxCell>
        <mxCell id="Y9dcvcBHEjXSq1MkC8Hs-25" value="«Interface»&lt;br&gt;&lt;b&gt;TypeHandler&lt;/b&gt;" style="html=1;fontSize=14;fontColor=#000000;strokeColor=#007FFF;" parent="1" vertex="1">
          <mxGeometry x="-485" y="2020" width="175" height="50" as="geometry" />
        </mxCell>
        <mxCell id="Y9dcvcBHEjXSq1MkC8Hs-26" value="«Abstract»&lt;br&gt;&lt;b&gt;TypeReferance&lt;/b&gt;" style="html=1;fontSize=14;fontColor=#000000;strokeColor=#007FFF;" parent="1" vertex="1">
          <mxGeometry x="-250" y="2020" width="175" height="50" as="geometry" />
        </mxCell>
        <mxCell id="Y9dcvcBHEjXSq1MkC8Hs-28" style="edgeStyle=orthogonalEdgeStyle;rounded=0;orthogonalLoop=1;jettySize=auto;html=1;exitX=0.5;exitY=0;exitDx=0;exitDy=0;entryX=0.5;entryY=1;entryDx=0;entryDy=0;fontSize=14;fontColor=#000000;" parent="1" source="Y9dcvcBHEjXSq1MkC8Hs-27" target="Y9dcvcBHEjXSq1MkC8Hs-25" edge="1">
          <mxGeometry relative="1" as="geometry" />
        </mxCell>
        <mxCell id="Y9dcvcBHEjXSq1MkC8Hs-29" style="edgeStyle=orthogonalEdgeStyle;rounded=0;orthogonalLoop=1;jettySize=auto;html=1;exitX=0.5;exitY=0;exitDx=0;exitDy=0;entryX=0.5;entryY=1;entryDx=0;entryDy=0;fontSize=14;fontColor=#000000;" parent="1" source="Y9dcvcBHEjXSq1MkC8Hs-27" target="Y9dcvcBHEjXSq1MkC8Hs-26" edge="1">
          <mxGeometry relative="1" as="geometry" />
        </mxCell>
        <mxCell id="Y9dcvcBHEjXSq1MkC8Hs-27" value="«Abstract»&lt;br&gt;&lt;b&gt;BaseTypeHandler&lt;/b&gt;" style="html=1;fontSize=14;fontColor=#000000;strokeColor=#007FFF;" parent="1" vertex="1">
          <mxGeometry x="-360" y="2140" width="175" height="50" as="geometry" />
        </mxCell>
        <mxCell id="Y9dcvcBHEjXSq1MkC8Hs-31" style="edgeStyle=orthogonalEdgeStyle;rounded=0;orthogonalLoop=1;jettySize=auto;html=1;exitX=0.5;exitY=0;exitDx=0;exitDy=0;entryX=0.5;entryY=1;entryDx=0;entryDy=0;fontSize=14;fontColor=#000000;" parent="1" source="Y9dcvcBHEjXSq1MkC8Hs-30" target="Y9dcvcBHEjXSq1MkC8Hs-27" edge="1">
          <mxGeometry relative="1" as="geometry" />
        </mxCell>
        <mxCell id="Y9dcvcBHEjXSq1MkC8Hs-30" value="具体类处理器" style="html=1;fontSize=14;fontColor=#000000;strokeColor=#007FFF;" parent="1" vertex="1">
          <mxGeometry x="-360" y="2240" width="175" height="50" as="geometry" />
        </mxCell>
      </root>
    </mxGraphModel>
  </diagram>
</mxfile>
